<svg xmlns="http://www.w3.org/2000/svg" xmlns:xlink="http://www.w3.org/1999/xlink" version="1.1" x="0px" y="0px" viewBox="0 0 100 125" style="enable-background:new 0 0 100 100;" xml:space="preserve"><style type="text/css">
	.st0{fill:#FFFFFF;}
	.st1{fill:#1D1C1A;}
	.st2{fill:#231F20;}
</style><g><path class="st1" d="M66.644043,41.1674805H42.1748047v-4.2749023c0-0.144104-0.0371094-0.2774048-0.0819702-0.40625   c0.0003662-0.0126953,0.0072632-0.0233154,0.0072632-0.0361328c0-4.8217773-3.9223633-8.7446289-8.7441406-8.7446289   c-0.6904297,0-1.25,0.5595703-1.25,1.25s0.5595703,1.25,1.25,1.25c3.4428711,0,6.2441406,2.8012695,6.2441406,6.2446289   c0,0.144104,0.0371094,0.2774048,0.0819702,0.40625c-0.0003662,0.0126953-0.0072632,0.0233154-0.0072632,0.0361328v4.2749023   H33.355957c-0.6904297,0-1.25,0.5595703-1.25,1.25s0.5595703,1.25,1.25,1.25h6.3188477v1.0209961   c0,1.7280273-0.0083008,3.4555664-0.0166016,5.1835938c-0.0107422,2.3466797-0.0219727,4.6943359-0.0126953,7.0419922   c0.0131836,3.3125,0.625,7.984375,3.465332,11.4345703c2.3271484,2.8261719,5.7998047,3.9521484,9.2143555,3.9521484   c1.8125,0,3.6098633-0.3173828,5.2094727-0.8662109c5.9257812-2.0322266,8.4926758-9.4472656,7.171875-15.0966797   c-0.7441406-3.1875-2.9257812-5.7177734-5.6928711-6.6025391c-1.7568359-0.5595703-3.7851562-0.3833008-5.4267578,0.4750977   c-1.4335938,0.7514648-2.4702148,1.972168-2.918457,3.4389648c-0.5356445,1.7568359-0.2763672,3.59375,0.730957,5.1738281   c1.09375,1.7167969,2.9155273,2.8691406,4.9980469,3.1621094c2.2958984,0.3164062,4.6904297-0.6738281,6.0957031-2.5361328   c0.0170898-0.0224609,0.0341797-0.0449219,0.0507812-0.0673828c-0.0078125,4.0146484-2.0439453,8.3925781-5.8208008,9.6875   c-3.6733398,1.2597656-8.8959961,1.0742188-11.6826172-2.3105469c-2.371582-2.8808594-2.8833008-6.9492188-2.8950195-9.8544922   c-0.0092773-2.3408203,0.0019531-4.6806641,0.0126953-7.0205078c0.0083008-1.7314453,0.0166016-3.4633789,0.0166016-5.1953125   v-1.0209961H66.644043c0.6904297,0,1.25-0.5595703,1.25-1.25S67.3344727,41.1674805,66.644043,41.1674805z M60.4975586,57.9443359   c-0.8662109,1.1484375-2.3330078,1.7705078-3.7524414,1.5644531c-1.3569336-0.1904297-2.5371094-0.9296875-3.237793-2.0292969   c-0.6079102-0.953125-0.7666016-2.0546875-0.4477539-3.0996094c0.3217773-1.0537109,1.0952148-1.6445312,1.6875-1.9550781   c0.6450195-0.3378906,1.4033203-0.5117188,2.1523438-0.5117188c0.4643555,0,0.925293,0.0673828,1.3535156,0.2041016   c0.9750977,0.3115234,1.8647461,0.9560547,2.5727539,1.8203125C61.4482422,55.4169922,61.3334961,56.8359375,60.4975586,57.9443359   z"/></g><text x="0" y="115" fill="#000000" font-size="5px" font-weight="bold" font-family="'Helvetica Neue', Helvetica, Arial-Unicode, Arial, Sans-serif">Created by Yu luck</text><text x="0" y="120" fill="#000000" font-size="5px" font-weight="bold" font-family="'Helvetica Neue', Helvetica, Arial-Unicode, Arial, Sans-serif">from the Noun Project</text></svg>